<svg version="1.1" xmlns="http://www.w3.org/2000/svg" viewBox="0 0 1761.1640624999998 1154.6296874999996" width="1761.1640624999998" height="1154.6296874999996">
  <!-- svg-source:excalidraw -->
  
  <defs>
    <style class="style-fonts">
      @font-face {
        font-family: "Virgil";
        src: url("https://excalidraw.com/Virgil.woff2");
      }
      @font-face {
        font-family: "Cascadia";
        src: url("https://excalidraw.com/Cascadia.woff2");
      }
      @font-face {
        font-family: "Assistant";
        src: url("https://excalidraw.com/Assistant-Regular.woff2");
      }
    </style>
    
  </defs>
  <rect x="0" y="0" width="1761.1640624999998" height="1154.6296874999996" fill="#ffffff"></rect><g stroke-linecap="round" transform="translate(1235.0157180059516 204.12097749255986) rotate(0 107.7265625 35.279296875)"><path d="M17.64 0 C86.39 0, 155.14 0, 197.81 0 C209.57 0, 215.45 5.88, 215.45 17.64 C215.45 29.23, 215.45 40.81, 215.45 52.92 C215.45 64.68, 209.57 70.56, 197.81 70.56 C152.86 70.56, 107.91 70.56, 17.64 70.56 C5.88 70.56, 0 64.68, 0 52.92 C0 42.93, 0 32.95, 0 17.64 C0 5.88, 5.88 0, 17.64 0" stroke="none" stroke-width="0" fill="#ffc9c9"></path><path d="M17.64 0 C56.16 0, 94.68 0, 197.81 0 M17.64 0 C86.05 0, 154.46 0, 197.81 0 M197.81 0 C209.57 0, 215.45 5.88, 215.45 17.64 M197.81 0 C209.57 0, 215.45 5.88, 215.45 17.64 M215.45 17.64 C215.45 26.31, 215.45 34.99, 215.45 52.92 M215.45 17.64 C215.45 31.27, 215.45 44.89, 215.45 52.92 M215.45 52.92 C215.45 64.68, 209.57 70.56, 197.81 70.56 M215.45 52.92 C215.45 64.68, 209.57 70.56, 197.81 70.56 M197.81 70.56 C151.58 70.56, 105.35 70.56, 17.64 70.56 M197.81 70.56 C145.16 70.56, 92.51 70.56, 17.64 70.56 M17.64 70.56 C5.88 70.56, 0 64.68, 0 52.92 M17.64 70.56 C5.88 70.56, 0 64.68, 0 52.92 M0 52.92 C0 42.04, 0 31.16, 0 17.64 M0 52.92 C0 44.33, 0 35.74, 0 17.64 M0 17.64 C0 5.88, 5.88 0, 17.64 0 M0 17.64 C0 5.88, 5.88 0, 17.64 0" stroke="#e03131" stroke-width="4" fill="none"></path></g><g transform="translate(1272.6944289434516 223.30027436755995) rotate(0 70.0478515625 16.100000000000023)"><text x="70.0478515625" y="25.760546874999996" font-family="Helvetica, Segoe UI Emoji" font-size="28px" fill="#e03131" text-anchor="middle" style="white-space: pre;" direction="ltr" dominant-baseline="alphabetic">vector&lt;u8&gt;</text></g><g stroke-linecap="round" transform="translate(1122.611994667658 479.96893213665726) rotate(0 107.7265625 35.279296875)"><path d="M17.64 0 C58.01 0, 98.38 0, 197.81 0 C209.57 0, 215.45 5.88, 215.45 17.64 C215.45 29.56, 215.45 41.48, 215.45 52.92 C215.45 64.68, 209.57 70.56, 197.81 70.56 C149.39 70.56, 100.97 70.56, 17.64 70.56 C5.88 70.56, 0 64.68, 0 52.92 C0 39.3, 0 25.67, 0 17.64 C0 5.88, 5.88 0, 17.64 0" stroke="none" stroke-width="0" fill="#a5d8ff"></path><path d="M17.64 0 C85.69 0, 153.74 0, 197.81 0 M17.64 0 C76.71 0, 135.79 0, 197.81 0 M197.81 0 C209.57 0, 215.45 5.88, 215.45 17.64 M197.81 0 C209.57 0, 215.45 5.88, 215.45 17.64 M215.45 17.64 C215.45 28.95, 215.45 40.27, 215.45 52.92 M215.45 17.64 C215.45 27.36, 215.45 37.08, 215.45 52.92 M215.45 52.92 C215.45 64.68, 209.57 70.56, 197.81 70.56 M215.45 52.92 C215.45 64.68, 209.57 70.56, 197.81 70.56 M197.81 70.56 C128.5 70.56, 59.19 70.56, 17.64 70.56 M197.81 70.56 C136.2 70.56, 74.58 70.56, 17.64 70.56 M17.64 70.56 C5.88 70.56, 0 64.68, 0 52.92 M17.64 70.56 C5.88 70.56, 0 64.68, 0 52.92 M0 52.92 C0 45.34, 0 37.77, 0 17.64 M0 52.92 C0 40.03, 0 27.13, 0 17.64 M0 17.64 C0 5.88, 5.88 0, 17.64 0 M0 17.64 C0 5.88, 5.88 0, 17.64 0" stroke="#1971c2" stroke-width="4" fill="none"></path></g><g transform="translate(1157.980158730158 499.14822901165735) rotate(0 72.3583984375 16.100000000000023)"><text x="72.3583984375" y="25.760546874999996" font-family="Helvetica, Segoe UI Emoji" font-size="28px" fill="#1971c2" text-anchor="middle" style="white-space: pre;" direction="ltr" dominant-baseline="alphabetic">ascii::String</text></g><g stroke-linecap="round" transform="translate(1441.0190662202376 478.83763873387943) rotate(0 139.9921875 36.00043402777783)"><path d="M18 0 C69.29 0, 120.57 0, 261.98 0 C273.98 0, 279.98 6, 279.98 18 C279.98 26.69, 279.98 35.38, 279.98 54 C279.98 66, 273.98 72, 261.98 72 C175.26 72, 88.54 72, 18 72 C6 72, 0 66, 0 54 C0 45.95, 0 37.89, 0 18 C0 6, 6 0, 18 0" stroke="none" stroke-width="0" fill="#a5d8ff"></path><path d="M18 0 C81.21 0, 144.41 0, 261.98 0 M18 0 C86.91 0, 155.82 0, 261.98 0 M261.98 0 C273.98 0, 279.98 6, 279.98 18 M261.98 0 C273.98 0, 279.98 6, 279.98 18 M279.98 18 C279.98 26.98, 279.98 35.95, 279.98 54 M279.98 18 C279.98 28.09, 279.98 38.17, 279.98 54 M279.98 54 C279.98 66, 273.98 72, 261.98 72 M279.98 54 C279.98 66, 273.98 72, 261.98 72 M261.98 72 C201.09 72, 140.19 72, 18 72 M261.98 72 C184.05 72, 106.12 72, 18 72 M18 72 C6 72, 0 66, 0 54 M18 72 C6 72, 0 66, 0 54 M0 54 C0 40.04, 0 26.07, 0 18 M0 54 C0 45.71, 0 37.41, 0 18 M0 18 C0 6, 6 0, 18 0 M0 18 C0 6, 6 0, 18 0" stroke="#1971c2" stroke-width="4" fill="none"></path></g><g transform="translate(1451.0532459077376 498.73807276165735) rotate(0 129.9580078125 16.100000000000023)"><text x="129.9580078125" y="25.760546874999996" font-family="Helvetica, Segoe UI Emoji" font-size="28px" fill="#1971c2" text-anchor="middle" style="white-space: pre;" direction="ltr" dominant-baseline="alphabetic">Option&lt;ascii::String&gt;</text></g><g stroke-linecap="round" transform="translate(1122.611994667658 715.2091393849207) rotate(0 107.72656250000006 35.279296875)"><path d="M17.64 0 C58.95 0, 100.26 0, 197.81 0 C209.57 0, 215.45 5.88, 215.45 17.64 C215.45 31.19, 215.45 44.75, 215.45 52.92 C215.45 64.68, 209.57 70.56, 197.81 70.56 C129.34 70.56, 60.87 70.56, 17.64 70.56 C5.88 70.56, 0 64.68, 0 52.92 C0 43.76, 0 34.61, 0 17.64 C0 5.88, 5.88 0, 17.64 0" stroke="none" stroke-width="0" fill="#b2f2bb"></path><path d="M17.64 0 C57.67 0, 97.71 0, 197.81 0 M17.64 0 C53.85 0, 90.07 0, 197.81 0 M197.81 0 C209.57 0, 215.45 5.88, 215.45 17.64 M197.81 0 C209.57 0, 215.45 5.88, 215.45 17.64 M215.45 17.64 C215.45 30.95, 215.45 44.25, 215.45 52.92 M215.45 17.64 C215.45 27.4, 215.45 37.16, 215.45 52.92 M215.45 52.92 C215.45 64.68, 209.57 70.56, 197.81 70.56 M215.45 52.92 C215.45 64.68, 209.57 70.56, 197.81 70.56 M197.81 70.56 C129.69 70.56, 61.56 70.56, 17.64 70.56 M197.81 70.56 C158.25 70.56, 118.68 70.56, 17.64 70.56 M17.64 70.56 C5.88 70.56, 0 64.68, 0 52.92 M17.64 70.56 C5.88 70.56, 0 64.68, 0 52.92 M0 52.92 C0 41.07, 0 29.22, 0 17.64 M0 52.92 C0 40.49, 0 28.07, 0 17.64 M0 17.64 C0 5.88, 5.88 0, 17.64 0 M0 17.64 C0 5.88, 5.88 0, 17.64 0" stroke="#2f9e44" stroke-width="4" fill="none"></path></g><g transform="translate(1151.752619667658 734.3884362599208) rotate(0 78.5859375 16.100000000000023)"><text x="78.5859375" y="25.760546874999996" font-family="Helvetica, Segoe UI Emoji" font-size="28px" fill="#2f9e44" text-anchor="middle" style="white-space: pre;" direction="ltr" dominant-baseline="alphabetic">string::String</text></g><g mask="url(#mask-3_Vl46l81VZjKaBTmCvR3)" stroke-linecap="round"><g transform="translate(1378.5530888764902 275.9184105282743) rotate(0 -45.62790712101173 100.29063778831858)"><path d="M0 0 C-4.46 20.01, -11.57 86.6, -26.78 120.03 C-41.99 153.46, -80.51 187.16, -91.26 200.58 M0 0 C-4.46 20.01, -11.57 86.6, -26.78 120.03 C-41.99 153.46, -80.51 187.16, -91.26 200.58" stroke="#1e1e1e" stroke-width="4" fill="none"></path></g><g transform="translate(1378.5530888764902 275.9184105282743) rotate(0 -45.62790712101173 100.29063778831858)"><path d="M-81.53 177.55 C-84.63 184.89, -87.73 192.24, -91.26 200.58 M-81.53 177.55 C-84.97 185.69, -88.41 193.84, -91.26 200.58" stroke="#1e1e1e" stroke-width="4" fill="none"></path></g><g transform="translate(1378.5530888764902 275.9184105282743) rotate(0 -45.62790712101173 100.29063778831858)"><path d="M-69 189.19 C-76.1 192.82, -83.19 196.45, -91.26 200.58 M-69 189.19 C-76.87 193.22, -84.74 197.25, -91.26 200.58" stroke="#1e1e1e" stroke-width="4" fill="none"></path></g></g><mask id="mask-3_Vl46l81VZjKaBTmCvR3"><rect x="0" y="0" fill="#fff" width="1569.8089031185136" height="576.4996861049115"></rect><rect x="1295.7679501488087" y="375.24996279761945" fill="#000" width="112.0078125" height="41.4" opacity="1"></rect></mask><g transform="translate(1295.7679501488087 375.24996279761945) rotate(0 37.15723160666971 0.9590855189734384)"><text x="56.00390625" y="33.120703125" font-family="Helvetica, Segoe UI Emoji" font-size="36px" fill="#1e1e1e" text-anchor="middle" style="white-space: pre;" direction="ltr" dominant-baseline="alphabetic">string()</text></g><g mask="url(#mask-F5ZfFT3ciyPq-fnN43w3P)" stroke-linecap="round"><g transform="translate(1451.6883808394407 275.9834799292589) rotate(0 66.72793849489642 97.37941191409084)"><path d="M0 0 C12.46 15.65, 52.5 61.45, 74.74 93.91 C96.98 126.37, 123.67 177.95, 133.46 194.76 M0 0 C12.46 15.65, 52.5 61.45, 74.74 93.91 C96.98 126.37, 123.67 177.95, 133.46 194.76" stroke="#1e1e1e" stroke-width="4" fill="none"></path></g><g transform="translate(1451.6883808394407 275.9834799292589) rotate(0 66.72793849489642 97.37941191409084)"><path d="M114.58 178.36 C120.02 183.09, 125.46 187.82, 133.46 194.76 M114.58 178.36 C120.68 183.66, 126.78 188.96, 133.46 194.76" stroke="#1e1e1e" stroke-width="4" fill="none"></path></g><g transform="translate(1451.6883808394407 275.9834799292589) rotate(0 66.72793849489642 97.37941191409084)"><path d="M129.54 170.07 C130.67 177.19, 131.8 184.3, 133.46 194.76 M129.54 170.07 C130.8 178.04, 132.07 186.02, 133.46 194.76" stroke="#1e1e1e" stroke-width="4" fill="none"></path></g></g><mask id="mask-F5ZfFT3ciyPq-fnN43w3P"><rect x="0" y="0" fill="#fff" width="1685.1442578292335" height="570.7423037574407"></rect><rect x="1440.4170386904755" y="349.1887648809527" fill="#000" width="172.01953125" height="41.4" opacity="1"></rect></mask><g transform="translate(1440.4170386904755 349.1887648809527) rotate(0 77.99928064386165 24.174126962397054)"><text x="86.009765625" y="33.120703125" font-family="Helvetica, Segoe UI Emoji" font-size="36px" fill="#1e1e1e" text-anchor="middle" style="white-space: pre;" direction="ltr" dominant-baseline="alphabetic">try_string()</text></g><g mask="url(#mask--YWYYDIGdqyp1dxJ4bvRw)" stroke-linecap="round"><g transform="translate(1190.8669596695158 472.991693559183) rotate(0 21.308966933621377 -94.8616973190259)"><path d="M0 0 C-2.82 -17.04, -26.81 -70.61, -16.89 -102.23 C-6.97 -133.85, 46.78 -175.14, 59.51 -189.72 M0 0 C-2.82 -17.04, -26.81 -70.61, -16.89 -102.23 C-6.97 -133.85, 46.78 -175.14, 59.51 -189.72" stroke="#1e1e1e" stroke-width="4" fill="none"></path></g><g transform="translate(1190.8669596695158 472.991693559183) rotate(0 21.308966933621377 -94.8616973190259)"><path d="M48.44 -167.31 C52.39 -175.32, 56.35 -183.32, 59.51 -189.72 M48.44 -167.31 C50.7 -171.89, 52.96 -176.47, 59.51 -189.72" stroke="#1e1e1e" stroke-width="4" fill="none"></path></g><g transform="translate(1190.8669596695158 472.991693559183) rotate(0 21.308966933621377 -94.8616973190259)"><path d="M36.62 -179.67 C44.8 -183.26, 52.97 -186.85, 59.51 -189.72 M36.62 -179.67 C41.3 -181.72, 45.97 -183.78, 59.51 -189.72" stroke="#1e1e1e" stroke-width="4" fill="none"></path></g></g><mask id="mask--YWYYDIGdqyp1dxJ4bvRw"><rect x="0" y="0" fill="#fff" width="1367.2666179353153" height="762.7150881972348"></rect><rect x="1079.9331287202376" y="350.06302083333367" fill="#000" width="188.0859375" height="41.4" opacity="1"></rect></mask><g transform="translate(1079.9331287202376 350.06302083333367) rotate(0 131.0484222668857 28.066975406823417)"><text x="94.04296875" y="33.120703125" font-family="Helvetica, Segoe UI Emoji" font-size="36px" fill="#1e1e1e" text-anchor="middle" style="white-space: pre;" direction="ltr" dominant-baseline="alphabetic">into_bytes()</text></g><g stroke-linecap="round" transform="translate(818.7994791666662 204.12097749255986) rotate(0 107.72656250000003 35.279296875)"><path d="M17.64 0 C68.55 0, 119.46 0, 197.81 0 C209.57 0, 215.45 5.88, 215.45 17.64 C215.45 31.28, 215.45 44.93, 215.45 52.92 C215.45 64.68, 209.57 70.56, 197.81 70.56 C138.33 70.56, 78.84 70.56, 17.64 70.56 C5.88 70.56, 0 64.68, 0 52.92 C0 45.85, 0 38.78, 0 17.64 C0 5.88, 5.88 0, 17.64 0" stroke="none" stroke-width="0" fill="#ffc9c9"></path><path d="M17.64 0 C60.88 0, 104.13 0, 197.81 0 M17.64 0 C54.57 0, 91.5 0, 197.81 0 M197.81 0 C209.57 0, 215.45 5.88, 215.45 17.64 M197.81 0 C209.57 0, 215.45 5.88, 215.45 17.64 M215.45 17.64 C215.45 26.58, 215.45 35.53, 215.45 52.92 M215.45 17.64 C215.45 26.31, 215.45 34.98, 215.45 52.92 M215.45 52.92 C215.45 64.68, 209.57 70.56, 197.81 70.56 M215.45 52.92 C215.45 64.68, 209.57 70.56, 197.81 70.56 M197.81 70.56 C139.12 70.56, 80.42 70.56, 17.64 70.56 M197.81 70.56 C145.91 70.56, 94 70.56, 17.64 70.56 M17.64 70.56 C5.88 70.56, 0 64.68, 0 52.92 M17.64 70.56 C5.88 70.56, 0 64.68, 0 52.92 M0 52.92 C0 42.38, 0 31.84, 0 17.64 M0 52.92 C0 45.05, 0 37.19, 0 17.64 M0 17.64 C0 5.88, 5.88 0, 17.64 0 M0 17.64 C0 5.88, 5.88 0, 17.64 0" stroke="#e03131" stroke-width="4" fill="none"></path></g><g transform="translate(847.1402994791662 223.30027436755995) rotate(0 79.38574218749999 16.100000000000023)"><text x="79.3857421875" y="25.760546874999996" font-family="Helvetica, Segoe UI Emoji" font-size="28px" fill="#e03131" text-anchor="middle" style="white-space: pre;" direction="ltr" dominant-baseline="alphabetic">&amp;vector&lt;u8&gt;</text></g><g stroke-linecap="round" transform="translate(818.7994791666662 479.55877588665726) rotate(0 107.72656250000003 35.279296875)"><path d="M17.64 0 C75.57 0, 133.51 0, 197.81 0 C209.57 0, 215.45 5.88, 215.45 17.64 C215.45 31.17, 215.45 44.7, 215.45 52.92 C215.45 64.68, 209.57 70.56, 197.81 70.56 C136.08 70.56, 74.35 70.56, 17.64 70.56 C5.88 70.56, 0 64.68, 0 52.92 C0 45.6, 0 38.28, 0 17.64 C0 5.88, 5.88 0, 17.64 0" stroke="none" stroke-width="0" fill="#a5d8ff"></path><path d="M17.64 0 C66.86 0, 116.08 0, 197.81 0 M17.64 0 C80.47 0, 143.29 0, 197.81 0 M197.81 0 C209.57 0, 215.45 5.88, 215.45 17.64 M197.81 0 C209.57 0, 215.45 5.88, 215.45 17.64 M215.45 17.64 C215.45 31.43, 215.45 45.22, 215.45 52.92 M215.45 17.64 C215.45 26.44, 215.45 35.24, 215.45 52.92 M215.45 52.92 C215.45 64.68, 209.57 70.56, 197.81 70.56 M215.45 52.92 C215.45 64.68, 209.57 70.56, 197.81 70.56 M197.81 70.56 C151.7 70.56, 105.58 70.56, 17.64 70.56 M197.81 70.56 C137.15 70.56, 76.49 70.56, 17.64 70.56 M17.64 70.56 C5.88 70.56, 0 64.68, 0 52.92 M17.64 70.56 C5.88 70.56, 0 64.68, 0 52.92 M0 52.92 C0 39.27, 0 25.62, 0 17.64 M0 52.92 C0 42.69, 0 32.46, 0 17.64 M0 17.64 C0 5.88, 5.88 0, 17.64 0 M0 17.64 C0 5.88, 5.88 0, 17.64 0" stroke="#1971c2" stroke-width="4" fill="none"></path></g><g transform="translate(844.8297526041662 498.73807276165735) rotate(0 81.69628906249999 16.100000000000023)"><text x="81.6962890625" y="25.760546874999996" font-family="Helvetica, Segoe UI Emoji" font-size="28px" fill="#1971c2" text-anchor="middle" style="white-space: pre;" direction="ltr" dominant-baseline="alphabetic">&amp;ascii::String</text></g><g mask="url(#mask-GNC_EnNB1vSSRMP8kXEHa)" stroke-linecap="round"><g transform="translate(926.5260416666662 466.034598214286) rotate(0 0 -93.56771995907741)"><path d="M0 0 C0 -31.19, 0 -155.95, 0 -187.14 M0 0 C0 -31.19, 0 -155.95, 0 -187.14" stroke="#1e1e1e" stroke-width="4" fill="none"></path></g><g transform="translate(926.5260416666662 466.034598214286) rotate(0 0 -93.56771995907741)"><path d="M8.55 -163.64 C5.63 -171.66, 2.71 -179.69, 0 -187.14 M8.55 -163.64 C5.49 -172.05, 2.43 -180.45, 0 -187.14" stroke="#1e1e1e" stroke-width="4" fill="none"></path></g><g transform="translate(926.5260416666662 466.034598214286) rotate(0 0 -93.56771995907741)"><path d="M-8.55 -163.64 C-5.63 -171.66, -2.71 -179.69, 0 -187.14 M-8.55 -163.64 C-5.49 -172.05, -2.43 -180.45, 0 -187.14" stroke="#1e1e1e" stroke-width="4" fill="none"></path></g></g><mask id="mask-GNC_EnNB1vSSRMP8kXEHa"><rect x="0" y="0" fill="#fff" width="1026.526041666666" height="753.1700381324408"></rect><rect x="842.4938151041662" y="351.76687825520867" fill="#000" width="168.064453125" height="41.4" opacity="1"></rect></mask><g transform="translate(842.4938151041661 351.76687825520867) rotate(0 84.0322265625 20.699999999999932)"><text x="84.0322265625" y="33.120703125" font-family="Helvetica, Segoe UI Emoji" font-size="36px" fill="#1e1e1e" text-anchor="middle" style="white-space: pre;" direction="ltr" dominant-baseline="alphabetic">as_bytes()</text></g><g stroke-linecap="round" transform="translate(498.6295572916663 479.55877588665726) rotate(0 107.72656250000003 35.279296875)"><path d="M17.64 0 C82.06 0, 146.49 0, 197.81 0 C209.57 0, 215.45 5.88, 215.45 17.64 C215.45 28.06, 215.45 38.48, 215.45 52.92 C215.45 64.68, 209.57 70.56, 197.81 70.56 C141.72 70.56, 85.62 70.56, 17.64 70.56 C5.88 70.56, 0 64.68, 0 52.92 C0 44.04, 0 35.16, 0 17.64 C0 5.88, 5.88 0, 17.64 0" stroke="none" stroke-width="0" fill="#ffec99"></path><path d="M17.64 0 C58.38 0, 99.12 0, 197.81 0 M17.64 0 C69.44 0, 121.24 0, 197.81 0 M197.81 0 C209.57 0, 215.45 5.88, 215.45 17.64 M197.81 0 C209.57 0, 215.45 5.88, 215.45 17.64 M215.45 17.64 C215.45 26.4, 215.45 35.16, 215.45 52.92 M215.45 17.64 C215.45 26.92, 215.45 36.21, 215.45 52.92 M215.45 52.92 C215.45 64.68, 209.57 70.56, 197.81 70.56 M215.45 52.92 C215.45 64.68, 209.57 70.56, 197.81 70.56 M197.81 70.56 C147.18 70.56, 96.55 70.56, 17.64 70.56 M197.81 70.56 C130.47 70.56, 63.13 70.56, 17.64 70.56 M17.64 70.56 C5.88 70.56, 0 64.68, 0 52.92 M17.64 70.56 C5.88 70.56, 0 64.68, 0 52.92 M0 52.92 C0 41.82, 0 30.72, 0 17.64 M0 52.92 C0 39.27, 0 25.62, 0 17.64 M0 17.64 C0 5.88, 5.88 0, 17.64 0 M0 17.64 C0 5.88, 5.88 0, 17.64 0" stroke="#f08c00" stroke-width="4" fill="none"></path></g><g transform="translate(540.2252604166663 498.73807276165735) rotate(0 66.130859375 16.100000000000023)"><text x="66.130859375" y="25.760546874999996" font-family="Helvetica, Segoe UI Emoji" font-size="28px" fill="#f08c00" text-anchor="middle" style="white-space: pre;" direction="ltr" dominant-baseline="alphabetic">ascii::Char</text></g><g stroke-linecap="round" transform="translate(498.6295572916663 204.12097749255986) rotate(0 107.72656250000003 35.279296875)"><path d="M17.64 0 C81.31 0, 144.98 0, 197.81 0 C209.57 0, 215.45 5.88, 215.45 17.64 C215.45 27.37, 215.45 37.1, 215.45 52.92 C215.45 64.68, 209.57 70.56, 197.81 70.56 C147.81 70.56, 97.81 70.56, 17.64 70.56 C5.88 70.56, 0 64.68, 0 52.92 C0 43.29, 0 33.67, 0 17.64 C0 5.88, 5.88 0, 17.64 0" stroke="none" stroke-width="0" fill="#d0bfff"></path><path d="M17.64 0 C63.87 0, 110.11 0, 197.81 0 M17.64 0 C70.29 0, 122.94 0, 197.81 0 M197.81 0 C209.57 0, 215.45 5.88, 215.45 17.64 M197.81 0 C209.57 0, 215.45 5.88, 215.45 17.64 M215.45 17.64 C215.45 28.52, 215.45 39.4, 215.45 52.92 M215.45 17.64 C215.45 26.23, 215.45 34.82, 215.45 52.92 M215.45 52.92 C215.45 64.68, 209.57 70.56, 197.81 70.56 M215.45 52.92 C215.45 64.68, 209.57 70.56, 197.81 70.56 M197.81 70.56 C129.06 70.56, 60.31 70.56, 17.64 70.56 M197.81 70.56 C129.27 70.56, 60.72 70.56, 17.64 70.56 M17.64 70.56 C5.88 70.56, 0 64.68, 0 52.92 M17.64 70.56 C5.88 70.56, 0 64.68, 0 52.92 M0 52.92 C0 44.12, 0 35.32, 0 17.64 M0 52.92 C0 40.12, 0 27.31, 0 17.64 M0 17.64 C0 5.88, 5.88 0, 17.64 0 M0 17.64 C0 5.88, 5.88 0, 17.64 0" stroke="#6741d9" stroke-width="4" fill="none"></path></g><g transform="translate(590.7838541666663 223.30027436755995) rotate(0 15.572265625 16.100000000000023)"><text x="15.572265625" y="25.760546874999996" font-family="Helvetica, Segoe UI Emoji" font-size="28px" fill="#6741d9" text-anchor="middle" style="white-space: pre;" direction="ltr" dominant-baseline="alphabetic">u8</text></g><g mask="url(#mask-hqrHm6PUA3cQhrsGYUO01)" stroke-linecap="round"><g transform="translate(662.3008645035789 280.8548177083335) rotate(0 0 95.92554873511915)"><path d="M0 0 C0 31.98, 0 159.88, 0 191.85 M0 0 C0 31.98, 0 159.88, 0 191.85" stroke="#1e1e1e" stroke-width="4" fill="none"></path></g><g transform="translate(662.3008645035789 280.8548177083335) rotate(0 0 95.92554873511915)"><path d="M-8.55 168.36 C-5.26 177.4, -1.97 186.43, 0 191.85 M-8.55 168.36 C-5.63 176.39, -2.7 184.43, 0 191.85" stroke="#1e1e1e" stroke-width="4" fill="none"></path></g><g transform="translate(662.3008645035789 280.8548177083335) rotate(0 0 95.92554873511915)"><path d="M8.55 168.36 C5.26 177.4, 1.97 186.43, 0 191.85 M8.55 168.36 C5.63 176.39, 2.7 184.43, 0 191.85" stroke="#1e1e1e" stroke-width="4" fill="none"></path></g></g><mask id="mask-hqrHm6PUA3cQhrsGYUO01"><rect x="0" y="0" fill="#fff" width="762.3008645035789" height="572.7059151785718"></rect><rect x="615.2969582535789" y="356.0803664434525" fill="#000" width="94.0078125" height="41.4" opacity="1"></rect></mask><g transform="translate(615.2969582535789 356.0803664434525) rotate(0 47.00390625 20.70000000000016)"><text x="47.00390625" y="33.120703125" font-family="Helvetica, Segoe UI Emoji" font-size="36px" fill="#1e1e1e" text-anchor="middle" style="white-space: pre;" direction="ltr" dominant-baseline="alphabetic">char()</text></g><g mask="url(#mask-wNEgsr59QL78LG2R75PnE)" stroke-linecap="round"><g transform="translate(552.6992772619567 474.726004464286) rotate(0 0 -97.2381882440477)"><path d="M0 0 C0 -32.41, 0 -162.06, 0 -194.48 M0 0 C0 -32.41, 0 -162.06, 0 -194.48" stroke="#1e1e1e" stroke-width="4" fill="none"></path></g><g transform="translate(552.6992772619567 474.726004464286) rotate(0 0 -97.2381882440477)"><path d="M8.55 -170.98 C6.42 -176.85, 4.28 -182.71, 0 -194.48 M8.55 -170.98 C5.82 -178.49, 3.09 -185.99, 0 -194.48" stroke="#1e1e1e" stroke-width="4" fill="none"></path></g><g transform="translate(552.6992772619567 474.726004464286) rotate(0 0 -97.2381882440477)"><path d="M-8.55 -170.98 C-6.42 -176.85, -4.28 -182.71, 0 -194.48 M-8.55 -170.98 C-5.82 -178.49, -3.09 -185.99, 0 -194.48" stroke="#1e1e1e" stroke-width="4" fill="none"></path></g></g><mask id="mask-wNEgsr59QL78LG2R75PnE"><rect x="0" y="0" fill="#fff" width="652.6992772619567" height="769.2023809523814"></rect><rect x="506.6885350744567" y="356.78781622023826" fill="#000" width="92.021484375" height="41.4" opacity="1"></rect></mask><g transform="translate(506.68853507445664 356.78781622023826) rotate(0 46.0107421875 20.700000000000045)"><text x="46.0107421875" y="33.120703125" font-family="Helvetica, Segoe UI Emoji" font-size="36px" fill="#1e1e1e" text-anchor="middle" style="white-space: pre;" direction="ltr" dominant-baseline="alphabetic">byte()</text></g><g mask="url(#mask-7mh7H0rJnuqfkSrzjM2my)" stroke-linecap="round"><g transform="translate(1229.7275855654757 557.0372023809527) rotate(0 0 78.58596850198398)"><path d="M0 0 C0 26.2, 0 130.98, 0 157.17 M0 0 C0 26.2, 0 130.98, 0 157.17" stroke="#1e1e1e" stroke-width="4" fill="none"></path></g><g transform="translate(1229.7275855654757 557.0372023809527) rotate(0 0 78.58596850198398)"><path d="M-8.55 133.68 C-5.32 142.56, -2.08 151.44, 0 157.17 M-8.55 133.68 C-6.67 138.84, -4.79 144, 0 157.17" stroke="#1e1e1e" stroke-width="4" fill="none"></path></g><g transform="translate(1229.7275855654757 557.0372023809527) rotate(0 0 78.58596850198398)"><path d="M8.55 133.68 C5.32 142.56, 2.08 151.44, 0 157.17 M8.55 133.68 C6.67 138.84, 4.79 144, 0 157.17" stroke="#1e1e1e" stroke-width="4" fill="none"></path></g></g><mask id="mask-7mh7H0rJnuqfkSrzjM2my"><rect x="0" y="0" fill="#fff" width="1329.7275855654757" height="814.2091393849207"></rect><rect x="1148.7012183779757" y="614.9231708829363" fill="#000" width="162.052734375" height="41.4" opacity="1"></rect></mask><g transform="translate(1148.7012183779757 614.9231708829368) rotate(0 81.0263671875 20.70000000000016)"><text x="81.0263671875" y="33.120703125" font-family="Helvetica, Segoe UI Emoji" font-size="36px" fill="#1e1e1e" text-anchor="middle" style="white-space: pre;" direction="ltr" dominant-baseline="alphabetic">to_string()</text></g><g stroke-linecap="round" transform="translate(498.12890624999966 628.1850779699907) rotate(0 107.72656250000003 37.5)"><path d="M18.75 0 C66.38 0, 114.01 0, 196.7 0 C209.2 0, 215.45 6.25, 215.45 18.75 C215.45 27.74, 215.45 36.73, 215.45 56.25 C215.45 68.75, 209.2 75, 196.7 75 C131.85 75, 67 75, 18.75 75 C6.25 75, 0 68.75, 0 56.25 C0 44.14, 0 32.02, 0 18.75 C0 6.25, 6.25 0, 18.75 0" stroke="none" stroke-width="0" fill="#a5d8ff"></path><path d="M18.75 0 C78.95 0, 139.16 0, 196.7 0 M18.75 0 C62.39 0, 106.04 0, 196.7 0 M196.7 0 C209.2 0, 215.45 6.25, 215.45 18.75 M196.7 0 C209.2 0, 215.45 6.25, 215.45 18.75 M215.45 18.75 C215.45 27.1, 215.45 35.45, 215.45 56.25 M215.45 18.75 C215.45 29.42, 215.45 40.08, 215.45 56.25 M215.45 56.25 C215.45 68.75, 209.2 75, 196.7 75 M215.45 56.25 C215.45 68.75, 209.2 75, 196.7 75 M196.7 75 C136.89 75, 77.08 75, 18.75 75 M196.7 75 C149.29 75, 101.87 75, 18.75 75 M18.75 75 C6.25 75, 0 68.75, 0 56.25 M18.75 75 C6.25 75, 0 68.75, 0 56.25 M0 56.25 C0 48.62, 0 40.99, 0 18.75 M0 56.25 C0 45.95, 0 35.65, 0 18.75 M0 18.75 C0 6.25, 6.25 0, 18.75 0 M0 18.75 C0 6.25, 6.25 0, 18.75 0" stroke="#1971c2" stroke-width="4" fill="none"></path></g><g transform="translate(533.4970703124997 633.4850779699907) rotate(0 72.3583984375 32.200000000000045)"><text x="72.3583984375" y="25.760546874999996" font-family="Helvetica, Segoe UI Emoji" font-size="28px" fill="#1971c2" text-anchor="middle" style="white-space: pre;" direction="ltr" dominant-baseline="alphabetic">&amp;mut </text><text x="72.3583984375" y="57.96054687499999" font-family="Helvetica, Segoe UI Emoji" font-size="28px" fill="#1971c2" text-anchor="middle" style="white-space: pre;" direction="ltr" dominant-baseline="alphabetic">ascii::String</text></g><g transform="translate(664.5837053571428 790.4265252976195) rotate(0 203.09765625 144.9000000000001)"><text x="203.09765625" y="33.120703125" font-family="Helvetica, Segoe UI Emoji" font-size="36px" fill="#1e1e1e" text-anchor="middle" style="white-space: pre;" direction="ltr" dominant-baseline="alphabetic">length()</text><text x="203.09765625" y="74.520703125" font-family="Helvetica, Segoe UI Emoji" font-size="36px" fill="#1e1e1e" text-anchor="middle" style="white-space: pre;" direction="ltr" dominant-baseline="alphabetic">substring()</text><text x="203.09765625" y="115.92070312499999" font-family="Helvetica, Segoe UI Emoji" font-size="36px" fill="#1e1e1e" text-anchor="middle" style="white-space: pre;" direction="ltr" dominant-baseline="alphabetic">is_empty()</text><text x="203.09765625" y="157.320703125" font-family="Helvetica, Segoe UI Emoji" font-size="36px" fill="#1e1e1e" text-anchor="middle" style="white-space: pre;" direction="ltr" dominant-baseline="alphabetic">index_of()</text><text x="203.09765625" y="198.720703125" font-family="Helvetica, Segoe UI Emoji" font-size="36px" fill="#1e1e1e" text-anchor="middle" style="white-space: pre;" direction="ltr" dominant-baseline="alphabetic">to_uppercase()</text><text x="203.09765625" y="240.120703125" font-family="Helvetica, Segoe UI Emoji" font-size="36px" fill="#1e1e1e" text-anchor="middle" style="white-space: pre;" direction="ltr" dominant-baseline="alphabetic">to_lowercase()</text><text x="203.09765625" y="281.52070312499995" font-family="Helvetica, Segoe UI Emoji" font-size="36px" fill="#1e1e1e" text-anchor="middle" style="white-space: pre;" direction="ltr" dominant-baseline="alphabetic">all_characters_printable()</text></g><g stroke-linecap="round" transform="translate(644.3727678571429 779.323660714286) rotate(0 223.3085937499999 155.62890624999977)"><path d="M32 0 C119.66 0, 207.33 0, 414.62 0 M414.62 0 C435.95 0, 446.62 10.67, 446.62 32 M446.62 32 C446.62 109.6, 446.62 187.2, 446.62 279.26 M446.62 279.26 C446.62 300.59, 435.95 311.26, 414.62 311.26 M414.62 311.26 C262.46 311.26, 110.3 311.26, 32 311.26 M32 311.26 C10.67 311.26, 0 300.59, 0 279.26 M0 279.26 C0 202.15, 0 125.04, 0 32 M0 32 C0 10.67, 10.67 0, 32 0" stroke="#1e1e1e" stroke-width="4.5" fill="none" stroke-dasharray="8 12"></path></g><g transform="translate(213.21651785714295 456.50855654761926) rotate(0 87.046875 82.79999999999995)"><text x="87.046875" y="33.120703125" font-family="Helvetica, Segoe UI Emoji" font-size="36px" fill="#1e1e1e" text-anchor="middle" style="white-space: pre;" direction="ltr" dominant-baseline="alphabetic">insert()</text><text x="87.046875" y="74.520703125" font-family="Helvetica, Segoe UI Emoji" font-size="36px" fill="#1e1e1e" text-anchor="middle" style="white-space: pre;" direction="ltr" dominant-baseline="alphabetic">append()</text><text x="87.046875" y="115.92070312499999" font-family="Helvetica, Segoe UI Emoji" font-size="36px" fill="#1e1e1e" text-anchor="middle" style="white-space: pre;" direction="ltr" dominant-baseline="alphabetic">pop_char()</text><text x="87.046875" y="157.320703125" font-family="Helvetica, Segoe UI Emoji" font-size="36px" fill="#1e1e1e" text-anchor="middle" style="white-space: pre;" direction="ltr" dominant-baseline="alphabetic"></text></g><g stroke-linecap="round" transform="translate(195.58761160714295 448.104910714286) rotate(0 104.67578125 76.6640625)"><path d="M32 0 C87.28 0, 142.56 0, 177.35 0 M177.35 0 C198.68 0, 209.35 10.67, 209.35 32 M209.35 32 C209.35 55.64, 209.35 79.27, 209.35 121.33 M209.35 121.33 C209.35 142.66, 198.68 153.33, 177.35 153.33 M177.35 153.33 C141.3 153.33, 105.24 153.33, 32 153.33 M32 153.33 C10.67 153.33, 0 142.66, 0 121.33 M0 121.33 C0 96.55, 0 71.77, 0 32 M0 32 C0 10.67, 10.67 0, 32 0" stroke="#1e1e1e" stroke-width="4.5" fill="none" stroke-dasharray="8 12"></path></g><g transform="translate(56.49190848214289 78.987723214286) rotate(0 166.095703125 82.79999999999995)"><text x="166.095703125" y="33.120703125" font-family="Helvetica, Segoe UI Emoji" font-size="36px" fill="#1e1e1e" text-anchor="middle" style="white-space: pre;" direction="ltr" dominant-baseline="alphabetic">is_valid_char()</text><text x="166.095703125" y="74.520703125" font-family="Helvetica, Segoe UI Emoji" font-size="36px" fill="#1e1e1e" text-anchor="middle" style="white-space: pre;" direction="ltr" dominant-baseline="alphabetic">is_printable_char()</text><text x="166.095703125" y="115.92070312499999" font-family="Helvetica, Segoe UI Emoji" font-size="36px" fill="#1e1e1e" text-anchor="middle" style="white-space: pre;" direction="ltr" dominant-baseline="alphabetic">char_to_lowercase()</text><text x="166.095703125" y="157.320703125" font-family="Helvetica, Segoe UI Emoji" font-size="36px" fill="#1e1e1e" text-anchor="middle" style="white-space: pre;" direction="ltr" dominant-baseline="alphabetic">char_to_uppercase()</text></g><g stroke-linecap="round" transform="translate(40.23604910714312 56.80022321428601) rotate(0 182.35156249999994 102.0859375)"><path d="M32 0 C93.13 0, 154.26 0, 332.7 0 M332.7 0 C354.04 0, 364.7 10.67, 364.7 32 M364.7 32 C364.7 62.5, 364.7 93.01, 364.7 172.17 M364.7 172.17 C364.7 193.51, 354.04 204.17, 332.7 204.17 M332.7 204.17 C266.09 204.17, 199.47 204.17, 32 204.17 M32 204.17 C10.67 204.17, 0 193.51, 0 172.17 M0 172.17 C0 130.54, 0 88.91, 0 32 M0 32 C0 10.67, 10.67 0, 32 0" stroke="#1e1e1e" stroke-width="4.5" fill="none" stroke-dasharray="8 12"></path></g><g stroke-linecap="round"><g transform="translate(408.7087053571429 155.143973214286) rotate(0 53.2109375 20.80078125)"><path d="M0 0 C17.74 6.93, 88.68 34.67, 106.42 41.6" stroke="#1e1e1e" stroke-width="4.5" fill="none" stroke-dasharray="8 12"></path></g></g><mask></mask><g stroke-linecap="round"><g transform="translate(499.0993303571429 632.011160714286) rotate(0 -47.4140625 -27.39453125)"><path d="M0 0 C-15.8 -9.13, -79.02 -45.66, -94.83 -54.79" stroke="#1e1e1e" stroke-width="4.5" fill="none" stroke-dasharray="8 12"></path></g></g><mask></mask><g stroke-linecap="round"><g transform="translate(934.1383928571429 556.862723214286) rotate(0 -26.52734375 111.33203125)"><path d="M0 0 C-8.84 37.11, -44.21 185.55, -53.05 222.66" stroke="#1e1e1e" stroke-width="4.5" fill="none" stroke-dasharray="8 12"></path></g></g><mask></mask><g stroke-linecap="round" transform="translate(10 10) rotate(0 870.5820312499999 557.7187499999999)"><path d="M32 0 C445.7 0, 859.41 0, 1709.16 0 M32 0 C410.55 0, 789.1 0, 1709.16 0 M1709.16 0 C1730.5 0, 1741.16 10.67, 1741.16 32 M1709.16 0 C1730.5 0, 1741.16 10.67, 1741.16 32 M1741.16 32 C1741.16 305.08, 1741.16 578.16, 1741.16 1083.44 M1741.16 32 C1741.16 257.86, 1741.16 483.72, 1741.16 1083.44 M1741.16 1083.44 C1741.16 1104.77, 1730.5 1115.44, 1709.16 1115.44 M1741.16 1083.44 C1741.16 1104.77, 1730.5 1115.44, 1709.16 1115.44 M1709.16 1115.44 C1296.68 1115.44, 884.2 1115.44, 32 1115.44 M1709.16 1115.44 C1057.18 1115.44, 405.19 1115.44, 32 1115.44 M32 1115.44 C10.67 1115.44, 0 1104.77, 0 1083.44 M32 1115.44 C10.67 1115.44, 0 1104.77, 0 1083.44 M0 1083.44 C0 787.33, 0 491.21, 0 32 M0 1083.44 C0 721.48, 0 359.52, 0 32 M0 32 C0 10.67, 10.67 0, 32 0 M0 32 C0 10.67, 10.67 0, 32 0" stroke="#1e1e1e" stroke-width="4" fill="none"></path></g><g transform="translate(1503.8927721769912 1056.9999999999998) rotate(0 116.39352416992188 43.81484374999991)"><text x="116.39352416992188" y="23.368412758647512" font-family="Helvetica, Segoe UI Emoji" font-size="25.399909420289838px" fill="#343a40" text-anchor="middle" style="white-space: pre;" direction="ltr" dominant-baseline="alphabetic">Sui Move标准库图解</text><text x="116.39352416992188" y="52.57830859198082" font-family="Helvetica, Segoe UI Emoji" font-size="25.399909420289838px" fill="#343a40" text-anchor="middle" style="white-space: pre;" direction="ltr" dominant-baseline="alphabetic">绘图：rzexin</text><text x="116.39352416992188" y="81.78820442531413" font-family="Helvetica, Segoe UI Emoji" font-size="25.399909420289838px" fill="#343a40" text-anchor="middle" style="white-space: pre;" direction="ltr" dominant-baseline="alphabetic"></text></g><g transform="translate(799.3154296874999 14.875) rotate(0 81.2666015625 46.716890407615324)"><text x="81.2666015625" y="74.7486115030815" font-family="Helvetica, Segoe UI Emoji" font-size="81.24676592628751px" fill="#343a40" text-anchor="middle" style="white-space: pre;" direction="ltr" dominant-baseline="alphabetic">ascii</text></g></svg>