<svg version="1.1" xmlns="http://www.w3.org/2000/svg" viewBox="0 0 1521.955078125 999.3269531249996" width="1521.955078125" height="999.3269531249996">
  <!-- svg-source:excalidraw -->
  
  <defs>
    <style class="style-fonts">
      @font-face {
        font-family: "Virgil";
        src: url("https://excalidraw.com/Virgil.woff2");
      }
      @font-face {
        font-family: "Cascadia";
        src: url("https://excalidraw.com/Cascadia.woff2");
      }
      @font-face {
        font-family: "Assistant";
        src: url("https://excalidraw.com/Assistant-Regular.woff2");
      }
    </style>
    
  </defs>
  <rect x="0" y="0" width="1521.955078125" height="999.3269531249996" fill="#ffffff"></rect><g stroke-linecap="round" transform="translate(991.4805617559518 204.74597749255986) rotate(0 107.7265625 35.279296875)"><path d="M17.64 0 C86.39 0, 155.14 0, 197.81 0 C209.57 0, 215.45 5.88, 215.45 17.64 C215.45 29.23, 215.45 40.81, 215.45 52.92 C215.45 64.68, 209.57 70.56, 197.81 70.56 C152.86 70.56, 107.91 70.56, 17.64 70.56 C5.88 70.56, 0 64.68, 0 52.92 C0 42.93, 0 32.95, 0 17.64 C0 5.88, 5.88 0, 17.64 0" stroke="none" stroke-width="0" fill="#ffc9c9"></path><path d="M17.64 0 C56.16 0, 94.68 0, 197.81 0 M17.64 0 C86.05 0, 154.46 0, 197.81 0 M197.81 0 C209.57 0, 215.45 5.88, 215.45 17.64 M197.81 0 C209.57 0, 215.45 5.88, 215.45 17.64 M215.45 17.64 C215.45 26.31, 215.45 34.99, 215.45 52.92 M215.45 17.64 C215.45 31.27, 215.45 44.89, 215.45 52.92 M215.45 52.92 C215.45 64.68, 209.57 70.56, 197.81 70.56 M215.45 52.92 C215.45 64.68, 209.57 70.56, 197.81 70.56 M197.81 70.56 C151.58 70.56, 105.35 70.56, 17.64 70.56 M197.81 70.56 C145.16 70.56, 92.51 70.56, 17.64 70.56 M17.64 70.56 C5.88 70.56, 0 64.68, 0 52.92 M17.64 70.56 C5.88 70.56, 0 64.68, 0 52.92 M0 52.92 C0 42.04, 0 31.16, 0 17.64 M0 52.92 C0 44.33, 0 35.74, 0 17.64 M0 17.64 C0 5.88, 5.88 0, 17.64 0 M0 17.64 C0 5.88, 5.88 0, 17.64 0" stroke="#e03131" stroke-width="4" fill="none"></path></g><g transform="translate(1029.1592726934518 223.92527436755995) rotate(0 70.0478515625 16.100000000000023)"><text x="70.0478515625" y="25.760546874999996" font-family="Helvetica, Segoe UI Emoji" font-size="28px" fill="#e03131" text-anchor="middle" style="white-space: pre;" direction="ltr" dominant-baseline="alphabetic">vector&lt;u8&gt;</text></g><g stroke-linecap="round" transform="translate(881.4651847718253 475.1803036644353) rotate(0 107.7265625 35.279296875)"><path d="M17.64 0 C58.01 0, 98.38 0, 197.81 0 C209.57 0, 215.45 5.88, 215.45 17.64 C215.45 29.56, 215.45 41.48, 215.45 52.92 C215.45 64.68, 209.57 70.56, 197.81 70.56 C149.39 70.56, 100.97 70.56, 17.64 70.56 C5.88 70.56, 0 64.68, 0 52.92 C0 39.3, 0 25.67, 0 17.64 C0 5.88, 5.88 0, 17.64 0" stroke="none" stroke-width="0" fill="#a5d8ff"></path><path d="M17.64 0 C85.69 0, 153.74 0, 197.81 0 M17.64 0 C76.71 0, 135.79 0, 197.81 0 M197.81 0 C209.57 0, 215.45 5.88, 215.45 17.64 M197.81 0 C209.57 0, 215.45 5.88, 215.45 17.64 M215.45 17.64 C215.45 28.95, 215.45 40.27, 215.45 52.92 M215.45 17.64 C215.45 27.36, 215.45 37.08, 215.45 52.92 M215.45 52.92 C215.45 64.68, 209.57 70.56, 197.81 70.56 M215.45 52.92 C215.45 64.68, 209.57 70.56, 197.81 70.56 M197.81 70.56 C128.5 70.56, 59.19 70.56, 17.64 70.56 M197.81 70.56 C136.2 70.56, 74.58 70.56, 17.64 70.56 M17.64 70.56 C5.88 70.56, 0 64.68, 0 52.92 M17.64 70.56 C5.88 70.56, 0 64.68, 0 52.92 M0 52.92 C0 45.34, 0 37.77, 0 17.64 M0 52.92 C0 40.03, 0 27.13, 0 17.64 M0 17.64 C0 5.88, 5.88 0, 17.64 0 M0 17.64 C0 5.88, 5.88 0, 17.64 0" stroke="#1971c2" stroke-width="4" fill="none"></path></g><g transform="translate(910.6058097718253 494.3596005394354) rotate(0 78.5859375 16.100000000000023)"><text x="78.5859375" y="25.760546874999996" font-family="Helvetica, Segoe UI Emoji" font-size="28px" fill="#1971c2" text-anchor="middle" style="white-space: pre;" direction="ltr" dominant-baseline="alphabetic">string::String</text></g><g stroke-linecap="round" transform="translate(1196.253441220238 473.3013974144353) rotate(0 143.66406249999994 37.158203125)"><path d="M18.58 0 C71.16 0, 123.75 0, 268.75 0 C281.14 0, 287.33 6.19, 287.33 18.58 C287.33 27.55, 287.33 36.52, 287.33 55.74 C287.33 68.12, 281.14 74.32, 268.75 74.32 C179.83 74.32, 90.91 74.32, 18.58 74.32 C6.19 74.32, 0 68.12, 0 55.74 C0 47.42, 0 39.11, 0 18.58 C0 6.19, 6.19 0, 18.58 0" stroke="none" stroke-width="0" fill="#a5d8ff"></path><path d="M18.58 0 C83.39 0, 148.2 0, 268.75 0 M18.58 0 C89.24 0, 159.9 0, 268.75 0 M268.75 0 C281.14 0, 287.33 6.19, 287.33 18.58 M268.75 0 C281.14 0, 287.33 6.19, 287.33 18.58 M287.33 18.58 C287.33 27.84, 287.33 37.11, 287.33 55.74 M287.33 18.58 C287.33 28.99, 287.33 39.4, 287.33 55.74 M287.33 55.74 C287.33 68.12, 281.14 74.32, 268.75 74.32 M287.33 55.74 C287.33 68.12, 281.14 74.32, 268.75 74.32 M268.75 74.32 C206.31 74.32, 143.87 74.32, 18.58 74.32 M268.75 74.32 C188.84 74.32, 108.94 74.32, 18.58 74.32 M18.58 74.32 C6.19 74.32, 0 68.12, 0 55.74 M18.58 74.32 C6.19 74.32, 0 68.12, 0 55.74 M0 55.74 C0 41.32, 0 26.91, 0 18.58 M0 55.74 C0 47.18, 0 38.61, 0 18.58 M0 18.58 C0 6.19, 6.19 0, 18.58 0 M0 18.58 C0 6.19, 6.19 0, 18.58 0" stroke="#1971c2" stroke-width="4" fill="none"></path></g><g transform="translate(1203.731956845238 494.3596005394354) rotate(0 136.18554687499994 16.100000000000023)"><text x="136.185546875" y="25.760546874999996" font-family="Helvetica, Segoe UI Emoji" font-size="28px" fill="#1971c2" text-anchor="middle" style="white-space: pre;" direction="ltr" dominant-baseline="alphabetic">Option&lt;string::String&gt;</text></g><g stroke-linecap="round" transform="translate(879.0768384176582 797.0548425099207) rotate(0 107.72656250000006 35.279296875)"><path d="M17.64 0 C58.95 0, 100.26 0, 197.81 0 C209.57 0, 215.45 5.88, 215.45 17.64 C215.45 31.19, 215.45 44.75, 215.45 52.92 C215.45 64.68, 209.57 70.56, 197.81 70.56 C129.34 70.56, 60.87 70.56, 17.64 70.56 C5.88 70.56, 0 64.68, 0 52.92 C0 43.76, 0 34.61, 0 17.64 C0 5.88, 5.88 0, 17.64 0" stroke="none" stroke-width="0" fill="#b2f2bb"></path><path d="M17.64 0 C57.67 0, 97.71 0, 197.81 0 M17.64 0 C53.85 0, 90.07 0, 197.81 0 M197.81 0 C209.57 0, 215.45 5.88, 215.45 17.64 M197.81 0 C209.57 0, 215.45 5.88, 215.45 17.64 M215.45 17.64 C215.45 30.95, 215.45 44.25, 215.45 52.92 M215.45 17.64 C215.45 27.4, 215.45 37.16, 215.45 52.92 M215.45 52.92 C215.45 64.68, 209.57 70.56, 197.81 70.56 M215.45 52.92 C215.45 64.68, 209.57 70.56, 197.81 70.56 M197.81 70.56 C129.69 70.56, 61.56 70.56, 17.64 70.56 M197.81 70.56 C158.25 70.56, 118.68 70.56, 17.64 70.56 M17.64 70.56 C5.88 70.56, 0 64.68, 0 52.92 M17.64 70.56 C5.88 70.56, 0 64.68, 0 52.92 M0 52.92 C0 41.07, 0 29.22, 0 17.64 M0 52.92 C0 40.49, 0 28.07, 0 17.64 M0 17.64 C0 5.88, 5.88 0, 17.64 0 M0 17.64 C0 5.88, 5.88 0, 17.64 0" stroke="#2f9e44" stroke-width="4" fill="none"></path></g><g transform="translate(914.4450024801582 816.2341393849208) rotate(0 72.3583984375 16.09999999999991)"><text x="72.3583984375" y="25.760546874999996" font-family="Helvetica, Segoe UI Emoji" font-size="28px" fill="#2f9e44" text-anchor="middle" style="white-space: pre;" direction="ltr" dominant-baseline="alphabetic">ascii::String</text></g><g mask="url(#mask-3_Vl46l81VZjKaBTmCvR3)" stroke-linecap="round"><g transform="translate(1135.0179326264904 276.5434105282743) rotate(0 -45.62790712101173 100.29063778831858)"><path d="M0 0 C-4.46 20.01, -11.57 86.6, -26.78 120.03 C-41.99 153.46, -80.51 187.16, -91.26 200.58 M0 0 C-4.46 20.01, -11.57 86.6, -26.78 120.03 C-41.99 153.46, -80.51 187.16, -91.26 200.58" stroke="#1e1e1e" stroke-width="4" fill="none"></path></g><g transform="translate(1135.0179326264904 276.5434105282743) rotate(0 -45.62790712101173 100.29063778831858)"><path d="M-81.53 177.55 C-84.63 184.89, -87.73 192.24, -91.26 200.58 M-81.53 177.55 C-84.97 185.69, -88.41 193.84, -91.26 200.58" stroke="#1e1e1e" stroke-width="4" fill="none"></path></g><g transform="translate(1135.0179326264904 276.5434105282743) rotate(0 -45.62790712101173 100.29063778831858)"><path d="M-69 189.19 C-76.1 192.82, -83.19 196.45, -91.26 200.58 M-69 189.19 C-76.87 193.22, -84.74 197.25, -91.26 200.58" stroke="#1e1e1e" stroke-width="4" fill="none"></path></g></g><mask id="mask-3_Vl46l81VZjKaBTmCvR3"><rect x="0" y="0" fill="#fff" width="1326.2737468685139" height="577.1246861049115"></rect><rect x="1066.224981398809" y="375.87496279761945" fill="#000" width="84.0234375" height="41.4" opacity="1"></rect></mask><g transform="translate(1066.224981398809 375.87496279761945) rotate(0 23.16504410666971 0.9590855189734384)"><text x="42.01171875" y="33.120703125" font-family="Helvetica, Segoe UI Emoji" font-size="36px" fill="#1e1e1e" text-anchor="middle" style="white-space: pre;" direction="ltr" dominant-baseline="alphabetic">utf8()</text></g><g mask="url(#mask-F5ZfFT3ciyPq-fnN43w3P)" stroke-linecap="round"><g transform="translate(1207.4668135662914 276.4945097566631) rotate(0 67.69816853843781 97.43639700038875)"><path d="M0 0 C12.47 15.67, 52.26 61.54, 74.83 94.02 C97.4 126.5, 125.3 178.06, 135.4 194.87 M0 0 C12.47 15.67, 52.26 61.54, 74.83 94.02 C97.4 126.5, 125.3 178.06, 135.4 194.87" stroke="#1e1e1e" stroke-width="4" fill="none"></path></g><g transform="translate(1207.4668135662914 276.4945097566631) rotate(0 67.69816853843781 97.43639700038875)"><path d="M116.27 178.78 C121.78 183.42, 127.3 188.06, 135.4 194.87 M116.27 178.78 C122.45 183.98, 128.63 189.18, 135.4 194.87" stroke="#1e1e1e" stroke-width="4" fill="none"></path></g><g transform="translate(1207.4668135662914 276.4945097566631) rotate(0 67.69816853843781 97.43639700038875)"><path d="M131.09 170.25 C132.33 177.35, 133.57 184.45, 135.4 194.87 M131.09 170.25 C132.48 178.2, 133.87 186.16, 135.4 194.87" stroke="#1e1e1e" stroke-width="4" fill="none"></path></g></g><mask id="mask-F5ZfFT3ciyPq-fnN43w3P"><rect x="0" y="0" fill="#fff" width="1442.863150643167" height="571.3673037574406"></rect><rect x="1210.2783668154757" y="349.8137648809527" fill="#000" width="144.03515625" height="41.4" opacity="1"></rect></mask><g transform="translate(1210.2783668154757 349.8137648809527) rotate(0 64.88661528925354 24.11714187609914)"><text x="72.017578125" y="33.120703125" font-family="Helvetica, Segoe UI Emoji" font-size="36px" fill="#1e1e1e" text-anchor="middle" style="white-space: pre;" direction="ltr" dominant-baseline="alphabetic">try_utf8()</text></g><g mask="url(#mask--YWYYDIGdqyp1dxJ4bvRw)" stroke-linecap="round"><g transform="translate(947.3318034195162 473.616693559183) rotate(0 21.308966933621377 -94.8616973190259)"><path d="M0 0 C-2.82 -17.04, -26.81 -70.61, -16.89 -102.23 C-6.97 -133.85, 46.78 -175.14, 59.51 -189.72 M0 0 C-2.82 -17.04, -26.81 -70.61, -16.89 -102.23 C-6.97 -133.85, 46.78 -175.14, 59.51 -189.72" stroke="#1e1e1e" stroke-width="4" fill="none"></path></g><g transform="translate(947.3318034195162 473.616693559183) rotate(0 21.308966933621377 -94.8616973190259)"><path d="M48.44 -167.31 C52.39 -175.32, 56.35 -183.32, 59.51 -189.72 M48.44 -167.31 C50.7 -171.89, 52.96 -176.47, 59.51 -189.72" stroke="#1e1e1e" stroke-width="4" fill="none"></path></g><g transform="translate(947.3318034195162 473.616693559183) rotate(0 21.308966933621377 -94.8616973190259)"><path d="M36.62 -179.67 C44.8 -183.26, 52.97 -186.85, 59.51 -189.72 M36.62 -179.67 C41.3 -181.72, 45.97 -183.78, 59.51 -189.72" stroke="#1e1e1e" stroke-width="4" fill="none"></path></g></g><mask id="mask--YWYYDIGdqyp1dxJ4bvRw"><rect x="0" y="0" fill="#fff" width="1123.7314616853155" height="763.3400881972348"></rect><rect x="836.397972470238" y="350.68802083333367" fill="#000" width="188.0859375" height="41.4" opacity="1"></rect></mask><g transform="translate(836.3979724702378 350.68802083333367) rotate(0 131.0484222668857 28.066975406823417)"><text x="94.04296875" y="33.120703125" font-family="Helvetica, Segoe UI Emoji" font-size="36px" fill="#1e1e1e" text-anchor="middle" style="white-space: pre;" direction="ltr" dominant-baseline="alphabetic">into_bytes()</text></g><g stroke-linecap="round" transform="translate(575.2643229166664 204.74597749255986) rotate(0 107.72656250000003 35.279296875)"><path d="M17.64 0 C68.55 0, 119.46 0, 197.81 0 C209.57 0, 215.45 5.88, 215.45 17.64 C215.45 31.28, 215.45 44.93, 215.45 52.92 C215.45 64.68, 209.57 70.56, 197.81 70.56 C138.33 70.56, 78.84 70.56, 17.64 70.56 C5.88 70.56, 0 64.68, 0 52.92 C0 45.85, 0 38.78, 0 17.64 C0 5.88, 5.88 0, 17.64 0" stroke="none" stroke-width="0" fill="#ffc9c9"></path><path d="M17.64 0 C60.88 0, 104.13 0, 197.81 0 M17.64 0 C54.57 0, 91.5 0, 197.81 0 M197.81 0 C209.57 0, 215.45 5.88, 215.45 17.64 M197.81 0 C209.57 0, 215.45 5.88, 215.45 17.64 M215.45 17.64 C215.45 26.58, 215.45 35.53, 215.45 52.92 M215.45 17.64 C215.45 26.31, 215.45 34.98, 215.45 52.92 M215.45 52.92 C215.45 64.68, 209.57 70.56, 197.81 70.56 M215.45 52.92 C215.45 64.68, 209.57 70.56, 197.81 70.56 M197.81 70.56 C139.12 70.56, 80.42 70.56, 17.64 70.56 M197.81 70.56 C145.91 70.56, 94 70.56, 17.64 70.56 M17.64 70.56 C5.88 70.56, 0 64.68, 0 52.92 M17.64 70.56 C5.88 70.56, 0 64.68, 0 52.92 M0 52.92 C0 42.38, 0 31.84, 0 17.64 M0 52.92 C0 45.05, 0 37.19, 0 17.64 M0 17.64 C0 5.88, 5.88 0, 17.64 0 M0 17.64 C0 5.88, 5.88 0, 17.64 0" stroke="#e03131" stroke-width="4" fill="none"></path></g><g transform="translate(603.6051432291664 223.92527436755995) rotate(0 79.38574218749999 16.100000000000023)"><text x="79.3857421875" y="25.760546874999996" font-family="Helvetica, Segoe UI Emoji" font-size="28px" fill="#e03131" text-anchor="middle" style="white-space: pre;" direction="ltr" dominant-baseline="alphabetic">&amp;vector&lt;u8&gt;</text></g><g stroke-linecap="round" transform="translate(566.6769283234125 475.1803036644353) rotate(0 107.72656250000003 35.279296875)"><path d="M17.64 0 C75.57 0, 133.51 0, 197.81 0 C209.57 0, 215.45 5.88, 215.45 17.64 C215.45 31.17, 215.45 44.7, 215.45 52.92 C215.45 64.68, 209.57 70.56, 197.81 70.56 C136.08 70.56, 74.35 70.56, 17.64 70.56 C5.88 70.56, 0 64.68, 0 52.92 C0 45.6, 0 38.28, 0 17.64 C0 5.88, 5.88 0, 17.64 0" stroke="none" stroke-width="0" fill="#a5d8ff"></path><path d="M17.64 0 C66.86 0, 116.08 0, 197.81 0 M17.64 0 C80.47 0, 143.29 0, 197.81 0 M197.81 0 C209.57 0, 215.45 5.88, 215.45 17.64 M197.81 0 C209.57 0, 215.45 5.88, 215.45 17.64 M215.45 17.64 C215.45 31.43, 215.45 45.22, 215.45 52.92 M215.45 17.64 C215.45 26.44, 215.45 35.24, 215.45 52.92 M215.45 52.92 C215.45 64.68, 209.57 70.56, 197.81 70.56 M215.45 52.92 C215.45 64.68, 209.57 70.56, 197.81 70.56 M197.81 70.56 C151.7 70.56, 105.58 70.56, 17.64 70.56 M197.81 70.56 C137.15 70.56, 76.49 70.56, 17.64 70.56 M17.64 70.56 C5.88 70.56, 0 64.68, 0 52.92 M17.64 70.56 C5.88 70.56, 0 64.68, 0 52.92 M0 52.92 C0 39.27, 0 25.62, 0 17.64 M0 52.92 C0 42.69, 0 32.46, 0 17.64 M0 17.64 C0 5.88, 5.88 0, 17.64 0 M0 17.64 C0 5.88, 5.88 0, 17.64 0" stroke="#1971c2" stroke-width="4" fill="none"></path></g><g transform="translate(586.4796626984127 494.3596005394354) rotate(0 87.92382812500001 16.100000000000023)"><text x="87.923828125" y="25.760546874999996" font-family="Helvetica, Segoe UI Emoji" font-size="28px" fill="#1971c2" text-anchor="middle" style="white-space: pre;" direction="ltr" dominant-baseline="alphabetic">&amp;string::String</text></g><g mask="url(#mask-GNC_EnNB1vSSRMP8kXEHa)" stroke-linecap="round"><g transform="translate(682.9908854166664 466.659598214286) rotate(0 0 -93.56771995907741)"><path d="M0 0 C0 -31.19, 0 -155.95, 0 -187.14 M0 0 C0 -31.19, 0 -155.95, 0 -187.14" stroke="#1e1e1e" stroke-width="4" fill="none"></path></g><g transform="translate(682.9908854166664 466.659598214286) rotate(0 0 -93.56771995907741)"><path d="M8.55 -163.64 C5.63 -171.66, 2.71 -179.69, 0 -187.14 M8.55 -163.64 C5.49 -172.05, 2.43 -180.45, 0 -187.14" stroke="#1e1e1e" stroke-width="4" fill="none"></path></g><g transform="translate(682.9908854166664 466.659598214286) rotate(0 0 -93.56771995907741)"><path d="M-8.55 -163.64 C-5.63 -171.66, -2.71 -179.69, 0 -187.14 M-8.55 -163.64 C-5.49 -172.05, -2.43 -180.45, 0 -187.14" stroke="#1e1e1e" stroke-width="4" fill="none"></path></g></g><mask id="mask-GNC_EnNB1vSSRMP8kXEHa"><rect x="0" y="0" fill="#fff" width="782.9908854166664" height="753.7950381324408"></rect><rect x="598.9586588541664" y="352.39187825520867" fill="#000" width="168.064453125" height="41.4" opacity="1"></rect></mask><g transform="translate(598.9586588541664 352.39187825520867) rotate(0 84.0322265625 20.699999999999932)"><text x="84.0322265625" y="33.120703125" font-family="Helvetica, Segoe UI Emoji" font-size="36px" fill="#1e1e1e" text-anchor="middle" style="white-space: pre;" direction="ltr" dominant-baseline="alphabetic">as_bytes()</text></g><g mask="url(#mask-7mh7H0rJnuqfkSrzjM2my)" stroke-linecap="round"><g transform="translate(1044.522507440476 557.0372023809527) rotate(0 12.228655133930033 119.19632006448398)"><path d="M0 0 C4.08 20.62, 24.46 83.96, 24.46 123.69 C24.46 163.43, 4.08 219.28, 0 238.39 M0 0 C4.08 20.62, 24.46 83.96, 24.46 123.69 C24.46 163.43, 4.08 219.28, 0 238.39" stroke="#1e1e1e" stroke-width="4" fill="none"></path></g><g transform="translate(1044.522507440476 557.0372023809527) rotate(0 12.228655133930033 119.19632006448398)"><path d="M13.78 20.86 C8.57 12.97, 3.36 5.08, 0 0 M13.78 20.86 C10.76 16.28, 7.73 11.7, 0 0" stroke="#1e1e1e" stroke-width="4" fill="none"></path></g><g transform="translate(1044.522507440476 557.0372023809527) rotate(0 12.228655133930033 119.19632006448398)"><path d="M-2.85 24.84 C-1.77 15.45, -0.69 6.05, 0 0 M-2.85 24.84 C-2.22 19.38, -1.6 13.93, 0 0" stroke="#1e1e1e" stroke-width="4" fill="none"></path></g></g><mask id="mask-7mh7H0rJnuqfkSrzjM2my"><rect x="0" y="0" fill="#fff" width="1168.979817708336" height="895.4298425099207"></rect><rect x="974.972005208336" y="660.031770833333" fill="#000" width="188.015625" height="41.4" opacity="1"></rect></mask><g transform="translate(974.972005208336 660.0317708333334) rotate(0 81.77915736606997 16.20175161210352)"><text x="94.0078125" y="33.120703125" font-family="Helvetica, Segoe UI Emoji" font-size="36px" fill="#1e1e1e" text-anchor="middle" style="white-space: pre;" direction="ltr" dominant-baseline="alphabetic">from_ascii()</text></g><g stroke-linecap="round" transform="translate(251.8886718749999 472.9596005394353) rotate(0 107.72656250000003 37.5)"><path d="M18.75 0 C66.38 0, 114.01 0, 196.7 0 C209.2 0, 215.45 6.25, 215.45 18.75 C215.45 27.74, 215.45 36.73, 215.45 56.25 C215.45 68.75, 209.2 75, 196.7 75 C131.85 75, 67 75, 18.75 75 C6.25 75, 0 68.75, 0 56.25 C0 44.14, 0 32.02, 0 18.75 C0 6.25, 6.25 0, 18.75 0" stroke="none" stroke-width="0" fill="#a5d8ff"></path><path d="M18.75 0 C78.95 0, 139.16 0, 196.7 0 M18.75 0 C62.39 0, 106.04 0, 196.7 0 M196.7 0 C209.2 0, 215.45 6.25, 215.45 18.75 M196.7 0 C209.2 0, 215.45 6.25, 215.45 18.75 M215.45 18.75 C215.45 27.1, 215.45 35.45, 215.45 56.25 M215.45 18.75 C215.45 29.42, 215.45 40.08, 215.45 56.25 M215.45 56.25 C215.45 68.75, 209.2 75, 196.7 75 M215.45 56.25 C215.45 68.75, 209.2 75, 196.7 75 M196.7 75 C136.89 75, 77.08 75, 18.75 75 M196.7 75 C149.29 75, 101.87 75, 18.75 75 M18.75 75 C6.25 75, 0 68.75, 0 56.25 M18.75 75 C6.25 75, 0 68.75, 0 56.25 M0 56.25 C0 48.62, 0 40.99, 0 18.75 M0 56.25 C0 45.95, 0 35.65, 0 18.75 M0 18.75 C0 6.25, 6.25 0, 18.75 0 M0 18.75 C0 6.25, 6.25 0, 18.75 0" stroke="#1971c2" stroke-width="4" fill="none"></path></g><g transform="translate(281.0292968749999 478.25960053943527) rotate(0 78.5859375 32.200000000000045)"><text x="78.5859375" y="25.760546874999996" font-family="Helvetica, Segoe UI Emoji" font-size="28px" fill="#1971c2" text-anchor="middle" style="white-space: pre;" direction="ltr" dominant-baseline="alphabetic">&amp;mut </text><text x="78.5859375" y="57.96054687499999" font-family="Helvetica, Segoe UI Emoji" font-size="28px" fill="#1971c2" text-anchor="middle" style="white-space: pre;" direction="ltr" dominant-baseline="alphabetic">string::String</text></g><g transform="translate(476.9772600446431 731.3758742559523) rotate(0 85.025390625 82.79999999999995)"><text x="85.025390625" y="33.120703125" font-family="Helvetica, Segoe UI Emoji" font-size="36px" fill="#1e1e1e" text-anchor="middle" style="white-space: pre;" direction="ltr" dominant-baseline="alphabetic">length()</text><text x="85.025390625" y="74.520703125" font-family="Helvetica, Segoe UI Emoji" font-size="36px" fill="#1e1e1e" text-anchor="middle" style="white-space: pre;" direction="ltr" dominant-baseline="alphabetic">index_of()</text><text x="85.025390625" y="115.92070312499999" font-family="Helvetica, Segoe UI Emoji" font-size="36px" fill="#1e1e1e" text-anchor="middle" style="white-space: pre;" direction="ltr" dominant-baseline="alphabetic">substring()</text><text x="85.025390625" y="157.320703125" font-family="Helvetica, Segoe UI Emoji" font-size="36px" fill="#1e1e1e" text-anchor="middle" style="white-space: pre;" direction="ltr" dominant-baseline="alphabetic">is_empty()</text></g><g stroke-linecap="round" transform="translate(445.5934709821431 709.323335193453) rotate(0 116.4091796875 104.85253906249977)"><path d="M32 0 C70.68 0, 109.36 0, 200.82 0 M200.82 0 C222.15 0, 232.82 10.67, 232.82 32 M232.82 32 C232.82 77.73, 232.82 123.46, 232.82 177.71 M232.82 177.71 C232.82 199.04, 222.15 209.71, 200.82 209.71 M200.82 209.71 C133.68 209.71, 66.55 209.71, 32 209.71 M32 209.71 C10.67 209.71, 0 199.04, 0 177.71 M0 177.71 C0 132.27, 0 86.83, 0 32 M0 32 C0 10.67, 10.67 0, 32 0" stroke="#1e1e1e" stroke-width="4.5" fill="none" stroke-dasharray="8 12"></path></g><g transform="translate(68.59591238839317 211.76077008928632) rotate(0 112.0869140625 62.10000000000002)"><text x="112.0869140625" y="33.120703125" font-family="Helvetica, Segoe UI Emoji" font-size="36px" fill="#1e1e1e" text-anchor="middle" style="white-space: pre;" direction="ltr" dominant-baseline="alphabetic">insert()</text><text x="112.0869140625" y="74.520703125" font-family="Helvetica, Segoe UI Emoji" font-size="36px" fill="#1e1e1e" text-anchor="middle" style="white-space: pre;" direction="ltr" dominant-baseline="alphabetic">append()</text><text x="112.0869140625" y="115.92070312499999" font-family="Helvetica, Segoe UI Emoji" font-size="36px" fill="#1e1e1e" text-anchor="middle" style="white-space: pre;" direction="ltr" dominant-baseline="alphabetic">append_utf8()</text></g><g stroke-linecap="round" transform="translate(53.887904575893174 186.04436383928623) rotate(0 126.794921875 87.81640625000011)"><path d="M32 0 C104.1 0, 176.21 0, 221.59 0 M221.59 0 C242.92 0, 253.59 10.67, 253.59 32 M253.59 32 C253.59 61.54, 253.59 91.08, 253.59 143.63 M253.59 143.63 C253.59 164.97, 242.92 175.63, 221.59 175.63 M221.59 175.63 C174.56 175.63, 127.54 175.63, 32 175.63 M32 175.63 C10.67 175.63, 0 164.97, 0 143.63 M0 143.63 C0 112.67, 0 81.7, 0 32 M0 32 C0 10.67, 10.67 0, 32 0" stroke="#1e1e1e" stroke-width="4.5" fill="none" stroke-dasharray="8 12"></path></g><g stroke-linecap="round"><g transform="translate(311.2575334821431 469.81389508928623) rotate(0 -40.099609375 -47.6533203125)"><path d="M0 0 C-13.37 -15.88, -66.83 -79.42, -80.2 -95.31" stroke="#1e1e1e" stroke-width="4.5" fill="none" stroke-dasharray="8 12"></path></g></g><mask></mask><g stroke-linecap="round"><g transform="translate(690.6032366071431 557.487723214286) rotate(0 -25.0771484375 77.8994140625)"><path d="M0 0 C-8.36 25.97, -41.8 129.83, -50.15 155.8" stroke="#1e1e1e" stroke-width="4.5" fill="none" stroke-dasharray="8 12"></path></g></g><mask></mask><g stroke-linecap="round" transform="translate(10 10) rotate(0 750.9775390625 484.1933593750001)"><path d="M32 0 C386.7 0, 741.4 0, 1469.96 0 M32 0 C356.56 0, 681.12 0, 1469.96 0 M1469.96 0 C1491.29 0, 1501.96 10.67, 1501.96 32 M1469.96 0 C1491.29 0, 1501.96 10.67, 1501.96 32 M1501.96 32 C1501.96 266.89, 1501.96 501.77, 1501.96 936.39 M1501.96 32 C1501.96 226.27, 1501.96 420.55, 1501.96 936.39 M1501.96 936.39 C1501.96 957.72, 1491.29 968.39, 1469.96 968.39 M1501.96 936.39 C1501.96 957.72, 1491.29 968.39, 1469.96 968.39 M1469.96 968.39 C1116.3 968.39, 762.65 968.39, 32 968.39 M1469.96 968.39 C910.96 968.39, 351.97 968.39, 32 968.39 M32 968.39 C10.67 968.39, 0 957.72, 0 936.39 M32 968.39 C10.67 968.39, 0 957.72, 0 936.39 M0 936.39 C0 681.69, 0 426.99, 0 32 M0 936.39 C0 625.05, 0 313.71, 0 32 M0 32 C0 10.67, 10.67 0, 32 0 M0 32 C0 10.67, 10.67 0, 32 0" stroke="#1e1e1e" stroke-width="4" fill="none"></path></g><g transform="translate(1267.4376940519915 901.6972656249998) rotate(0 116.39352416992188 43.81484374999991)"><text x="116.39352416992188" y="23.368412758647512" font-family="Helvetica, Segoe UI Emoji" font-size="25.399909420289838px" fill="#343a40" text-anchor="middle" style="white-space: pre;" direction="ltr" dominant-baseline="alphabetic">Sui Move标准库图解</text><text x="116.39352416992188" y="52.57830859198082" font-family="Helvetica, Segoe UI Emoji" font-size="25.399909420289838px" fill="#343a40" text-anchor="middle" style="white-space: pre;" direction="ltr" dominant-baseline="alphabetic">绘图：rzexin</text><text x="116.39352416992188" y="81.78820442531413" font-family="Helvetica, Segoe UI Emoji" font-size="25.399909420289838px" fill="#343a40" text-anchor="middle" style="white-space: pre;" direction="ltr" dominant-baseline="alphabetic"></text></g><g transform="translate(659.4858856201172 15.5) rotate(0 99.32856750488281 46.716890407615324)"><text x="99.32856750488281" y="74.7486115030815" font-family="Helvetica, Segoe UI Emoji" font-size="81.24676592628751px" fill="#343a40" text-anchor="middle" style="white-space: pre;" direction="ltr" dominant-baseline="alphabetic">string</text></g><g mask="url(#mask-4PD8bt4twit38VhU9Yc8y)" stroke-linecap="round"><g transform="translate(920.112630208336 554.2278645833335) rotate(0 -25.3759765625 119.69726562499989)"><path d="M0 0 C-8.46 19.95, -50.19 79.78, -50.75 119.68 C-51.32 159.58, -11.27 219.44, -3.38 239.39 M0 0 C-8.46 19.95, -50.19 79.78, -50.75 119.68 C-51.32 159.58, -11.27 219.44, -3.38 239.39" stroke="#1e1e1e" stroke-width="4" fill="none"></path></g><g transform="translate(920.112630208336 554.2278645833335) rotate(0 -25.3759765625 119.69726562499989)"><path d="M-21.66 222.35 C-15.97 227.65, -10.28 232.96, -3.38 239.39 M-21.66 222.35 C-15.27 228.3, -8.88 234.26, -3.38 239.39" stroke="#1e1e1e" stroke-width="4" fill="none"></path></g><g transform="translate(920.112630208336 554.2278645833335) rotate(0 -25.3759765625 119.69726562499989)"><path d="M-6.43 214.58 C-5.48 222.3, -4.53 230.03, -3.38 239.39 M-6.43 214.58 C-5.36 223.25, -4.3 231.92, -3.38 239.39" stroke="#1e1e1e" stroke-width="4" fill="none"></path></g></g><mask id="mask-4PD8bt4twit38VhU9Yc8y"><rect x="0" y="0" fill="#fff" width="1070.864583333336" height="893.6223958333333"></rect><rect x="796.341145833336" y="653.205598958333" fill="#000" width="146.0390625" height="41.4" opacity="1"></rect></mask><g transform="translate(796.341145833336 653.2055989583334) rotate(0 98.3925666041768 20.71953125000016)"><text x="73.01953125" y="33.120703125" font-family="Helvetica, Segoe UI Emoji" font-size="36px" fill="#1e1e1e" text-anchor="middle" style="white-space: pre;" direction="ltr" dominant-baseline="alphabetic">to_ascii()</text></g></svg>